<?xml version="1.0" encoding="UTF-8" standalone="no"?>
<svg
   width="16"
   height="16"
   version="1.1"
   viewBox="0 0 16 16"
   id="svg5"
   xmlns="http://www.w3.org/2000/svg"
   xmlns:svg="http://www.w3.org/2000/svg">
  <defs
     id="defs5" />
  <path
     d="m0 13.1c0 1.6 1.31 2.91 2.91 2.91h3.33v-1.79h-3.33c-0.637 0-1.12-0.484-1.12-1.12v-10.2c0-0.637 0.484-1.12 1.12-1.12h10.2c0.637 0 1.12 0.484 1.12 1.12v10.2c0 0.637-0.484 1.12-1.12 1.12h-5.56v1.79h5.56c1.6 0 2.91-1.31 2.91-2.91v-10.2c0-1.6-1.31-2.91-2.91-2.91h-10.2c-1.6 0-2.91 1.31-2.91 2.91z"
     fill="#000000"
     id="path1" />
  <path
     d="m6.05 16v-1.79h2v1.79z"
     fill="#000000"
     id="path2" />
  <path
     d="m 11.325354,2.9958365 c -1.6200004,0 -2.7300008,1.52 -2.7300008,3.14 v 1.73 h 2.0000008 v -1.73 c 0,-0.754 0.438,-1.14 0.732,-1.14 0.294,0 0.73,0.39 0.73,1.14 v 4.7099995 c 0,0.754 -0.436,1.14 -0.73,1.14 -0.294,0 -0.732,-0.39 -0.732,-1.14 V 8.7258365 H 8.5953532 v 2.1199995 c 0,1.62 1.1100004,3.14 2.7300008,3.14 1.62,0 2.73,-1.52 2.73,-3.14 V 6.1358365 c 0,-1.62 -1.11,-3.14 -2.73,-3.14 z"
     fill="#000000"
     id="path3" />
  <path
     d="m 3.2942999,2.8170507 c -0.552,0 -1,0.448 -1,1 v 9.0000003 c 0,0.552 0.448,1 1,1 0.552,0 1.0000004,-0.448 1.0000004,-1 v -2.08 l 1.47,2.78 c 0.259,0.488 1.02,0.4 1.41,0.0137 0.394,-0.387 0.315,-0.951 0.0137,-1.41 l -1.78,-3.8000003 1.78,-3.8 c 0.234,-0.5 0.381,-1.03 -0.0137,-1.41 -0.189,-0.185 -0.444,-0.287 -0.709,-0.285 -0.265,0.00233 -0.581,0.0644 -0.705,0.299 l -1.47,2.78 v -2.08 c 0,-0.552 -0.4480004,-1 -1.0000004,-1 z"
     fill="#000000"
     id="path4" />
  <path
     d="m 6.3946096,6.7486121 h 1.9999998 v 3 H 6.3946096 Z"
     fill="#000000"
     id="path5" />
</svg>
